/* XPM */
static char * terminal_xpm[] = {
"45 37 53 1",
" 	c None",
".	c #000000",
"+	c #5D5D5D",
"@	c #707070",
"#	c #6E6E6E",
"$	c #525252",
"%	c #E8E8E8",
"&	c #FFFFFF",
"*	c #D1D1D1",
"=	c #FBFBFB",
"-	c #8F8F8F",
";	c #B5B5B5",
">	c #B0B0B0",
",	c #818181",
"'	c #E7E7E7",
")	c #BFBFBF",
"!	c #A6A6A6",
"~	c #363636",
"{	c #F7F7F7",
"]	c #BCBCBC",
"^	c #D6D6D6",
"/	c #424242",
"(	c #383838",
"_	c #CDCDCD",
":	c #EBEBEB",
"<	c #A7A7A7",
"[	c #ACACAC",
"}	c #F3F3F3",
"|	c #9F9F9F",
"1	c #959595",
"2	c #E3E3E3",
"3	c #7A7A7A",
"4	c #8A8A8A",
"5	c #D7D7D7",
"6	c #DEDEDE",
"7	c #C3C3C3",
"8	c #4A4A4A",
"9	c #7F7F7F",
"0	c #777777",
"a	c #C7C7C7",
"b	c #CBCBCB",
"c	c #575757",
"d	c #3F3F3F",
"e	c #656565",
"f	c #686868",
"g	c #8C8C8C",
"h	c #A2A2A2",
"i	c #626262",
"j	c #9A9A9A",
"k	c #404040",
"l	c #5B5B5B",
"m	c #858585",
"n	c #4F4F4F",
".............................................",
".+@@@@@@@@@@@##@@@@@@@@@@@@@@@@@@@@@@@@@@@@$.",
".%&&&&&&&&&&&&&&&&&&&&&&&&&&&&&&&&&&&&&&&&&*.",
".%=-;;;;;;;;;;;;;;>;;;>;;;;;;;;;>;;;>>;>;,=*.",
".'=)&&&&&&&&&&&&&&&&&&&&&&&&&&&&&&&&&&&&!~{*.",
".%=]&&==&&&&&&&&&&&&&&&&&&&&&&&&&&&&&&^/(~=_.",
".'=;============&=&&&&&&&&&&&&&&&&&&:@~~~~=*.",
".%=>={=={=========&=&&=&&&&&&&&&&&&<~~~~~~=*.",
".'{[}{{{{{{{{={={==========&&&&&&*$~~~~~~~=*.",
".%=!}}}}{}}}{}{{{{{{{{=====&===:,~~~~~~~~~=*.",
".%=|%::%::}:}:}}:}}}}{}{{{}}}{;/~~~~~~~~~~=*.",
".'=12''''%%%%:%%::}:}}:%:::}'3~~~~~~~~~~~~{*.",
".'{4^5556662222'22'2222'%%%78~~~~~~~~~~~~~=*.",
".'=9____***^^^5555526622264(~~~~~~~~~~~~~~{*.",
".'=0a7abbb___**^^5555566ac~~~~~~~~~~~~~~~~=*.",
".%=0)777aaaabb_****^^^51d~~~~~~~~~~~~~~~~~=_.",
".'=0]))7777aaabb___**be~~~~~~~~~~~~~~~~~~~{*.",
".'=@]])]]))777aaabb_]8~~~~~~~~~~~~~~~~~~~~=*.",
".'{#[>>;]]])))77aaa!d~~~~~~~~~~~~~~~~~~~~~{_.",
".%=f<[[>;;]]]]))77g(~~~~~~~~~~~~~~~~~~~~~~=*.",
".'{fh!<<<[>>>;]])@~~~~~~~~~~~~~~~~~~~~~~~~{*.",
".%=i|hhh!!<[[>;[+~~~~~~~~~~~~~~~~~~~~~~~~~=_.",
".%=i11jj|hh!!<h8~~~~~~~~~~~~~~~~~~~~~~~~~~=*.",
".'=+--11jj||hgk~~~~~~~~~~~~~~~~~~~~~~~~~~~{*.",
".'{lm4g--111,(~~~~~~~~~~~~~~~~~~~~~~~~~~~~=*.",
".'=c9mmm4g-0(~~~~~~~~~~~~~~~~~~~~~~~~~~~~~{*.",
".'=c399,mm#~~~~~~~~~~~~~~~~~~~~~~~~~~~~~~~=*.",
".%=/i#033e~~~~~~~~~~~~~~~~~~~~~~~~~~~~~~~~{_.",
".'=k$ccic~~~~~~~~~~~~~~~~~~~~~~~~~~~~~~~~~=*.",
".'=d8nn/~~~~~~~~~~~~~~~~~~~~~~~~~~~~~~~~~~=*.",
".'{d//k(~~~~~~~~~~~~~~~~~~~~~~~~~~~~~~~~~~=*.",
".%=(k(~~~~~~~~~~~~~~~~~~~~~~~~~~~~~~~~~~~~=_.",
".'=((~~~~~~~~~~~~~~~~~~~~~~~~~~~~~~~~~~~~~=*.",
".%=939333393393333393339333339333339333333=*.",
".%&&&&&&&&&&&&&&&&&&&&&&&&&&&&&&&&&&&&&&&&&*.",
".d$n$n$n$$nn$nn$nn$nn$nn$n$n$n$n$n$n$n$nn$n(.",
"............................................."};
