<?xml version="1.0" encoding="UTF-8" standalone="no"?>
<svg
   width="96"
   height="96"
   id="svg11300"
   version="1.0"
   style="display:inline;enable-background:new"
   viewBox="0 0 96 96"
   sodipodi:docname="org.xfce.terminal-settings.svg"
   inkscape:version="1.2.2 (b0a8486541, 2022-12-01)"
   inkscape:export-filename="org.xfce.terminal-settings.png"
   inkscape:export-xdpi="96"
   inkscape:export-ydpi="96"
   xmlns:inkscape="http://www.inkscape.org/namespaces/inkscape"
   xmlns:sodipodi="http://sodipodi.sourceforge.net/DTD/sodipodi-0.dtd"
   xmlns:xlink="http://www.w3.org/1999/xlink"
   xmlns="http://www.w3.org/2000/svg"
   xmlns:svg="http://www.w3.org/2000/svg"
   xmlns:rdf="http://www.w3.org/1999/02/22-rdf-syntax-ns#"
   xmlns:cc="http://creativecommons.org/ns#"
   xmlns:dc="http://purl.org/dc/elements/1.1/">
  <sodipodi:namedview
     pagecolor="#ffffff"
     bordercolor="#666666"
     borderopacity="1"
     objecttolerance="10"
     gridtolerance="10"
     guidetolerance="10"
     inkscape:pageopacity="0"
     inkscape:pageshadow="2"
     inkscape:window-width="1322"
     inkscape:window-height="962"
     id="namedview44"
     showgrid="true"
     inkscape:zoom="8.5599999"
     inkscape:cx="59.170561"
     inkscape:cy="72.254673"
     inkscape:window-x="481"
     inkscape:window-y="36"
     inkscape:window-maximized="0"
     inkscape:current-layer="svg11300"
     inkscape:lockguides="false"
     showguides="false"
     inkscape:guide-bbox="true"
     inkscape:showpageshadow="2"
     inkscape:pagecheckerboard="0"
     inkscape:deskcolor="#d1d1d1">
    <inkscape:grid
       type="xygrid"
       id="grid4761"
       empspacing="4"
       originx="0"
       originy="0" />
  </sodipodi:namedview>
  <title
     id="title4162">Adwaita Icon Template</title>
  <defs
     id="defs3">
    <linearGradient
       id="linearGradient1020"
       inkscape:swatch="gradient">
      <stop
         style="stop-color:#ffffff;stop-opacity:1;"
         offset="0"
         id="stop1016" />
      <stop
         style="stop-color:#ffffff;stop-opacity:0.09411765"
         offset="1"
         id="stop1018" />
    </linearGradient>
    <linearGradient
       inkscape:collect="always"
       xlink:href="#linearGradient870"
       id="linearGradient872-3"
       x1="69.432274"
       y1="59.292229"
       x2="69.432274"
       y2="115.19054"
       gradientUnits="userSpaceOnUse"
       gradientTransform="matrix(0.72917033,0,0,0.72916906,17.87203,7.7242235)" />
    <linearGradient
       inkscape:collect="always"
       id="linearGradient870">
      <stop
         style="stop-color:#f9da02;stop-opacity:1;"
         offset="0"
         id="stop866" />
      <stop
         style="stop-color:#dcb102;stop-opacity:1"
         offset="1"
         id="stop868" />
    </linearGradient>
  </defs>
  <metadata
     id="metadata4">
    <rdf:RDF>
      <cc:Work
         rdf:about="">
        <dc:title>Adwaita Icon Template</dc:title>
      </cc:Work>
    </rdf:RDF>
  </metadata>
  <rect
     style="display:inline;opacity:1;fill:#d2d8dc;fill-opacity:1;stroke:#a7b0b7;stroke-width:1.00001;stroke-linecap:butt;stroke-linejoin:miter;stroke-miterlimit:4;stroke-dasharray:none;stroke-dashoffset:0;stroke-opacity:1;marker:none;marker-start:none;marker-mid:none;marker-end:none;paint-order:normal;enable-background:new"
     id="rect929-36-9-9-2"
     height="78.999985"
     x="6.5000076"
     y="8.5000076"
     ry="5"
     rx="5"
     width="82.999985" />
  <rect
     style="display:inline;opacity:1;fill:#263742;fill-opacity:1;stroke:none;stroke-width:0.999998;stroke-linecap:butt;stroke-linejoin:miter;stroke-miterlimit:4;stroke-dasharray:none;stroke-dashoffset:0;stroke-opacity:1;marker:none;marker-start:none;marker-mid:none;marker-end:none;paint-order:normal;enable-background:new"
     id="rect946-0-7-4-0"
     width="72"
     height="66"
     x="12.000001"
     y="14.000001"
     ry="4"
     rx="4" />
  <path
     inkscape:connector-curvature="0"
     d="m 38.000003,44.000003 2e-6,4 h 15.999996 v -4 z"
     style="font-style:normal;font-variant:normal;font-weight:bold;font-stretch:normal;font-size:medium;line-height:1.25;font-family:'Source Code Pro';-inkscape-font-specification:'Source Code Pro, Bold';font-variant-ligatures:normal;font-variant-caps:normal;font-variant-numeric:normal;font-feature-settings:normal;text-align:start;letter-spacing:0px;word-spacing:0px;writing-mode:lr-tb;text-anchor:start;fill:#f1f3f5;fill-opacity:1;stroke:none;stroke-width:0.999998;stroke-dasharray:none"
     id="path974-5" />
  <path
     style="display:inline;opacity:1;fill:#758087;fill-opacity:1;stroke:none;stroke-width:0.999994;stroke-linecap:butt;stroke-linejoin:miter;stroke-miterlimit:4;stroke-dasharray:none;stroke-dashoffset:0;stroke-opacity:1;marker:none;marker-start:none;marker-mid:none;marker-end:none;paint-order:normal;enable-background:new"
     d="M 89.000002,81.000001 V 83 c 0,2.044089 -2.311169,4.000001 -3.999999,4.000001 h -74 C 9.521549,87.000001 7.001981,85.189791 7.000946,83 l -9.45e-4,-1.999999 c 0,2.860034 1.939488,4 4.1,4 h 73.800318 c 2.052632,0 4.099683,-1.06432 4.099683,-4 z"
     id="rect929-36-9-9-2-2-3"
     inkscape:connector-curvature="0"
     sodipodi:nodetypes="csssscssc" />
  <path
     style="fill:#f1f3f5;fill-opacity:1;stroke:none;stroke-width:1px;stroke-linecap:butt;stroke-linejoin:miter;stroke-opacity:1"
     d="m 22.000003,24.000003 12,6 v 4 l -12,6 v -4 l 8,-4 -8,-4 v -4"
     id="path992"
     inkscape:connector-curvature="0" />
  <path
     id="path864-2"
     d="m 68.50001,49.499943 -1.942515,5.830018 c -0.225008,0.08503 -0.449995,0.175 -0.670042,0.275001 l -5.49247,-2.745007 -3.535051,3.53501 2.750003,5.497523 a 12.500065,12.500044 0 0 0 -0.290005,0.665006 l -5.819987,1.9425 v 5.000014 l 5.829993,1.942508 c 0.08503,0.225004 0.174999,0.450004 0.274996,0.670005 l -2.745,5.492516 3.535051,3.535012 5.497473,-2.750005 c 0.217514,0.104958 0.440031,0.200034 0.665039,0.289999 l 1.942515,5.82002 h 4.999981 l 1.942535,-5.83002 c 0.225008,-0.08497 0.449996,-0.175 0.670021,-0.275 l 5.492492,2.745006 3.53505,-3.535012 -2.750023,-5.497517 c 0.104999,-0.217495 0.200117,-0.44 0.290025,-0.665004 l 5.819963,-1.942508 v -5.000014 l -5.829969,-1.9425 a 12.475065,12.475043 0 0 0 -0.275016,-0.670007 l 2.74502,-5.492522 -3.53505,-3.53501 -5.497495,2.75001 a 12.480065,12.480043 0 0 0 -0.665018,-0.290001 l -1.942535,-5.820021 z m 2.500001,10.000035 a 7.5000391,7.5000264 0 1 1 0,15.000044 7.5000391,7.5000264 0 0 1 0,-15.000044 z"
     style="display:inline;fill:url(#linearGradient872-3);fill-opacity:1;stroke:#ad7702;stroke-width:0.999887;stroke-miterlimit:4;stroke-dasharray:none;stroke-opacity:1;enable-background:new"
     inkscape:connector-curvature="0" />
</svg>
