<?xml version="1.0" encoding="UTF-8" standalone="no"?>
<!DOCTYPE svg PUBLIC "-//W3C//DTD SVG 1.0//EN"
"http://www.w3.org/TR/2001/REC-SVG-20010904/DTD/svg10.dtd">
<!-- Created with Inkscape (http://www.inkscape.org/) -->
<svg
   id="svg1"
   sodipodi:version="0.32"
   inkscape:version="0.38.1"
   xmlns="http://www.w3.org/2000/svg"
   xmlns:sodipodi="http://sodipodi.sourceforge.net/DTD/sodipodi-0.dtd"
   xmlns:inkscape="http://www.inkscape.org/namespaces/inkscape"
   xmlns:xlink="http://www.w3.org/1999/xlink"
   width="355.00000pt"
   height="355.00000pt"
   sodipodi:docbase="/tmp"
   sodipodi:docname="mime-application:x-terminal-color-palette.svg">
  <defs
     id="defs3" />
  <sodipodi:namedview
     id="base"
     pagecolor="#ffffff"
     bordercolor="#666666"
     borderopacity="1.0"
     inkscape:pageopacity="0.0"
     inkscape:pageshadow="2"
     inkscape:zoom="1.0707464"
     inkscape:cx="169.88322"
     inkscape:cy="185.97773"
     inkscape:window-width="640"
     inkscape:window-height="527"
     showgrid="true"
     snaptogrid="true"
     inkscape:window-x="1809"
     inkscape:window-y="407" />
  <g
     id="g919"
     transform="matrix(0.853567,0.000000,0.000000,1.130162,-503.3030,154.0355)">
    <path
       style="fill:none;fill-rule:evenodd;stroke:#000000;stroke-width:9.9458075;stroke-linecap:round;stroke-linejoin:round;"
       d="M 28.968321,74.136978 C 36.004265,66.908607 39.522237,70.522794 43.040209,74.136978 C 46.558181,77.751166 50.076153,81.365350 57.112097,74.136978"
       id="path908"
       sodipodi:nodetypes="ccc"
       transform="matrix(3.155274,0.000000,0.000000,2.873784,597.8877,-166.3472)" />
    <path
       style="fill:none;fill-opacity:0.75000000;fill-rule:evenodd;stroke:#000000;stroke-width:9.9458075;stroke-linecap:round;"
       d="M 102.17703,39.531034 L 102.17703,116.92736"
       id="path910"
       sodipodi:nodetypes="cc"
       transform="matrix(3.155274,0.000000,0.000000,2.873784,597.8877,-166.3472)" />
    <path
       style="fill:none;fill-opacity:0.75000000;fill-rule:evenodd;stroke:#000000;stroke-width:9.9458075;stroke-linecap:round;"
       d="M 124.73529,58.880115 C 124.85465,58.880115 124.73529,45.980727 102.17703,45.980727 C 86.063996,45.980727 79.499426,52.430420 79.618783,62.104962 C 79.618783,71.779502 89.286604,75.004349 102.17703,75.004349 C 118.29008,75.004349 128.07725,81.454042 127.95789,94.353432 C 127.95789,104.02796 119.99536,110.55922 102.17703,110.47767 C 86.063996,110.47767 76.396176,100.80311 76.515532,91.128583"
       id="path916"
       sodipodi:nodetypes="ccccccc"
       transform="matrix(3.155274,0.000000,0.000000,2.873784,597.8877,-166.3472)" />
    <rect
       style="fill-opacity:0.38235292;fill-rule:evenodd;stroke-width:3.7943192;"
       id="rect917"
       width="149.67355"
       height="120.01327"
       x="8.9616179"
       y="24.369932"
       ry="0.88898715"
       transform="matrix(3.155274,0.000000,0.000000,2.873784,597.8877,-166.3472)" />
    <rect
       style="fill-rule:evenodd;stroke:#000000;stroke-width:3.9160004;"
       id="rect894"
       width="149.67355"
       height="120.01327"
       x="3.3792825"
       y="18.151813"
       ry="0.88898715"
       transform="matrix(3.155274,0.000000,0.000000,2.873784,597.8877,-166.3472)" />
    <rect
       style="fill:#ffffff;fill-rule:evenodd;stroke-width:0.96349487pt;"
       id="rect895"
       width="142.38805"
       height="112.51243"
       x="7.0142145"
       y="21.902227"
       ry="0.83342543"
       transform="matrix(3.155274,0.000000,0.000000,2.873784,597.8877,-166.3472)" />
    <rect
       style="fill:#363636;fill-rule:evenodd;stroke-width:1.2250000;stroke-linejoin:round;"
       id="rect896"
       width="137.30406"
       height="98.768517"
       x="9.4802208"
       y="32.911888"
       ry="0.0000000"
       transform="matrix(3.155274,0.000000,0.000000,2.873784,597.8877,-166.3472)" />
    <path
       style="fill:url(#linearGradient900);fill-opacity:0.32352939;fill-rule:evenodd;stroke-width:1.0000000pt;"
       d="M 12.282817,36.390407 L 12.282817,129.06891 C 63.406396,82.790874 88.968183,66.263006 143.74347,36.512840 L 12.282817,36.390407 z "
       id="path925"
       sodipodi:nodetypes="cccc"
       transform="matrix(3.155274,0.000000,0.000000,2.873784,597.8877,-166.3472)" />
  </g>
  <g
     id="g928"
     transform="matrix(0.819316,0.000000,0.000000,0.576615,659.4118,-322.7595)">
    <path
       sodipodi:type="arc"
       style="fill:#ff0000;fill-opacity:0.75000000;fill-rule:evenodd;stroke:#000000;stroke-width:1.0000000pt;opacity:0.90000000;"
       id="path825"
       sodipodi:cx="240.40767"
       sodipodi:cy="375.76575"
       sodipodi:rx="148.27539"
       sodipodi:ry="141.07756"
       d="M 388.68306 375.76575 A 148.27539 141.07756 0 1 0 92.132278,375.76575 A 148.27539 141.07756 0 1 0 388.68306 375.76575 z"
       transform="translate(-73.79075,-201.5394)" />
    <path
       sodipodi:type="arc"
       style="fill:#0600ff;fill-opacity:0.75000000;fill-rule:evenodd;stroke:#000000;stroke-width:1.0000000pt;opacity:0.90000000;"
       id="path826"
       sodipodi:cx="240.40767"
       sodipodi:cy="375.76575"
       sodipodi:rx="148.27539"
       sodipodi:ry="141.07756"
       d="M 388.68306 375.76575 A 148.27539 141.07756 0 1 0 92.132278,375.76575 A 148.27539 141.07756 0 1 0 388.68306 375.76575 z"
       transform="translate(16.90197,-43.18706)" />
    <path
       sodipodi:type="arc"
       style="fill:#25ff00;fill-opacity:0.75000000;fill-rule:evenodd;stroke:#000000;stroke-width:1.0000000pt;opacity:0.90000000;"
       id="path827"
       sodipodi:cx="240.40767"
       sodipodi:cy="375.76575"
       sodipodi:rx="148.27539"
       sodipodi:ry="141.07756"
       d="M 388.68306 375.76575 A 148.27539 141.07756 0 1 0 92.132278,375.76575 A 148.27539 141.07756 0 1 0 388.68306 375.76575 z"
       transform="translate(103.3746,-204.4186)" />
  </g>
  <g
     id="g941"
     transform="translate(8.012387,17.71653)">
    <rect
       style="fill:#0101ff;fill-rule:evenodd;stroke:#000000;stroke-width:1.0000000pt;"
       id="rect933"
       width="88.582680"
       height="88.582680"
       x="79.945278"
       y="125.47737" />
    <rect
       style="fill:#ffea00;fill-rule:evenodd;stroke:#000000;stroke-width:1.0000000pt;"
       id="rect934"
       width="88.582680"
       height="88.582680"
       x="168.52794"
       y="125.47737" />
    <rect
       style="fill:#ff001c;fill-rule:evenodd;stroke:#000000;stroke-width:1.0000000pt;"
       id="rect935"
       width="88.582680"
       height="88.582680"
       x="257.11062"
       y="125.47737" />
    <rect
       style="fill:#f95aff;fill-rule:evenodd;stroke:#000000;stroke-width:1.0000000pt;"
       id="rect936"
       width="88.582680"
       height="88.582680"
       x="79.945278"
       y="214.06004" />
    <rect
       style="fill:#00f5ff;fill-rule:evenodd;stroke:#000000;stroke-width:1.0000000pt;"
       id="rect937"
       width="88.582680"
       height="88.582680"
       x="168.52794"
       y="214.06004" />
    <rect
       style="fill:#0eff00;fill-rule:evenodd;stroke:#000000;stroke-width:1.0000000pt;"
       id="rect938"
       width="88.582680"
       height="88.582680"
       x="257.11062"
       y="214.06004" />
  </g>
</svg>
