<?xml version="1.0" encoding="UTF-8" standalone="no"?>
<svg
   inkscape:export-ydpi="96"
   inkscape:export-xdpi="96"
   inkscape:export-filename="org.xfce.terminal-settings.png"
   inkscape:version="1.2.2 (b0a8486541, 2022-12-01)"
   sodipodi:docname="org.xfce.terminal-settings.svg"
   viewBox="0 0 128 128"
   style="display:inline;enable-background:new"
   version="1.0"
   id="svg11300"
   height="128"
   width="128"
   xmlns:inkscape="http://www.inkscape.org/namespaces/inkscape"
   xmlns:sodipodi="http://sodipodi.sourceforge.net/DTD/sodipodi-0.dtd"
   xmlns:xlink="http://www.w3.org/1999/xlink"
   xmlns="http://www.w3.org/2000/svg"
   xmlns:svg="http://www.w3.org/2000/svg"
   xmlns:rdf="http://www.w3.org/1999/02/22-rdf-syntax-ns#"
   xmlns:cc="http://creativecommons.org/ns#"
   xmlns:dc="http://purl.org/dc/elements/1.1/">
  <sodipodi:namedview
     inkscape:document-rotation="0"
     inkscape:guide-bbox="true"
     showguides="false"
     inkscape:lockguides="false"
     inkscape:current-layer="svg11300"
     inkscape:window-maximized="1"
     inkscape:window-y="0"
     inkscape:window-x="0"
     inkscape:cy="59.929907"
     inkscape:cx="-13.668224"
     inkscape:zoom="4.28"
     showgrid="true"
     id="namedview44"
     inkscape:window-height="1030"
     inkscape:window-width="1920"
     inkscape:pageshadow="2"
     inkscape:pageopacity="0"
     guidetolerance="10"
     gridtolerance="10"
     objecttolerance="10"
     borderopacity="1"
     bordercolor="#666666"
     pagecolor="#ffffff"
     inkscape:showpageshadow="2"
     inkscape:pagecheckerboard="0"
     inkscape:deskcolor="#d1d1d1">
    <inkscape:grid
       empspacing="4"
       id="grid4761"
       type="xygrid" />
  </sodipodi:namedview>
  <title
     id="title4162">Adwaita Icon Template</title>
  <defs
     id="defs3">
    <linearGradient
       id="linearGradient1020"
       inkscape:swatch="gradient">
      <stop
         id="stop1016"
         offset="0"
         style="stop-color:#ffffff;stop-opacity:1;" />
      <stop
         id="stop1018"
         offset="1"
         style="stop-color:#ffffff;stop-opacity:0.09411765" />
    </linearGradient>
    <linearGradient
       inkscape:collect="always"
       xlink:href="#linearGradient870"
       id="linearGradient872"
       x1="69.432274"
       y1="59.292229"
       x2="69.432274"
       y2="115.19054"
       gradientUnits="userSpaceOnUse"
       gradientTransform="matrix(1.1458333,0,0,1.1458333,8.513618,-9.1473421)" />
    <linearGradient
       inkscape:collect="always"
       id="linearGradient870">
      <stop
         style="stop-color:#f9da02;stop-opacity:1;"
         offset="0"
         id="stop866" />
      <stop
         style="stop-color:#dcb102;stop-opacity:1"
         offset="1"
         id="stop868" />
    </linearGradient>
  </defs>
  <metadata
     id="metadata4">
    <rdf:RDF>
      <cc:Work
         rdf:about="">
        <dc:title>Adwaita Icon Template</dc:title>
      </cc:Work>
    </rdf:RDF>
  </metadata>
  <rect
     rx="7.9999995"
     ry="8"
     y="12"
     x="8"
     height="100"
     width="112"
     id="rect929-36-9-9-2"
     style="display:inline;opacity:1;fill:#d2d8dc;fill-opacity:1;stroke:none;stroke-width:1;stroke-linecap:butt;stroke-linejoin:miter;stroke-miterlimit:4;stroke-dasharray:none;stroke-dashoffset:0;stroke-opacity:1;marker:none;marker-start:none;marker-mid:none;marker-end:none;paint-order:normal;enable-background:new" />
  <rect
     rx="4"
     ry="4"
     y="19.99999"
     x="16.000008"
     height="84"
     width="96"
     id="rect946-0-7-4-0"
     style="display:inline;opacity:1;fill:#263742;fill-opacity:1;stroke:none;stroke-width:1;stroke-linecap:butt;stroke-linejoin:miter;stroke-miterlimit:4;stroke-dasharray:none;stroke-dashoffset:0;stroke-opacity:1;marker:none;marker-start:none;marker-mid:none;marker-end:none;paint-order:normal;enable-background:new" />
  <path
     sodipodi:nodetypes="csssscssc"
     inkscape:connector-curvature="0"
     id="rect929-3-6-3-9-2"
     d="m 8,104 v 4 c 0,4.432 3.568,8 8,8 h 96 c 4.432,0 8,-3.568 8,-8 v -4 c 0,4.432 -3.568,8 -8,8 H 16 c -4.432,0 -8,-3.568 -8,-8 z"
     style="display:inline;opacity:1;fill:#758087;fill-opacity:1;stroke:none;stroke-width:1;stroke-linecap:butt;stroke-linejoin:miter;stroke-miterlimit:4;stroke-dasharray:none;stroke-dashoffset:0;stroke-opacity:1;marker:none;marker-start:none;marker-mid:none;marker-end:none;paint-order:normal;enable-background:new" />
  <path
     sodipodi:nodetypes="ccccccccc"
     id="path972-7"
     style="font-style:normal;font-variant:normal;font-weight:bold;font-stretch:normal;font-size:medium;line-height:1.25;font-family:'Source Code Pro';-inkscape-font-specification:'Source Code Pro, Bold';font-variant-ligatures:normal;font-variant-caps:normal;font-variant-numeric:normal;font-feature-settings:normal;text-align:start;letter-spacing:0px;word-spacing:0px;writing-mode:lr-tb;text-anchor:start;fill:#f1f3f5;fill-opacity:1;stroke:none;stroke-width:1;stroke-dasharray:none"
     d="M 36.00001,36.215937 24.000009,28.27182 v 4.860292 l 8.000001,5.139708 v 0 l -8.000001,5.139707 V 48.27182 L 36.00001,40.327703 Z"
     inkscape:connector-curvature="0" />
  <path
     id="path974-5"
     style="font-style:normal;font-variant:normal;font-weight:bold;font-stretch:normal;font-size:medium;line-height:1.25;font-family:'Source Code Pro';-inkscape-font-specification:'Source Code Pro, Bold';font-variant-ligatures:normal;font-variant-caps:normal;font-variant-numeric:normal;font-feature-settings:normal;text-align:start;letter-spacing:0px;word-spacing:0px;writing-mode:lr-tb;text-anchor:start;fill:#f1f3f5;fill-opacity:1;stroke:none;stroke-width:1;stroke-dasharray:none"
     d="m 40.00001,52 10e-7,4 h 16 l -10e-7,-4 z"
     inkscape:connector-curvature="0" />
  <path
     id="path864"
     d="m 88.071432,56.5 -3.052503,9.161428 c -0.353569,0.133572 -0.707145,0.275 -1.052862,0.432143 l -8.631066,-4.313572 -5.555006,5.555001 4.321434,8.63893 a 19.64286,19.64286 0 0 0 -0.455714,1.045 L 64.5,80.07143 v 7.85714 l 9.161428,3.052499 c 0.133571,0.353577 0.274995,0.707146 0.432141,1.052862 l -4.313574,8.631069 5.555006,5.555 8.638927,-4.32143 c 0.341781,0.16501 0.691432,0.31429 1.045001,0.45571 L 88.071423,111.5 h 7.857141 l 3.05251,-9.16143 c 0.35358,-0.13357 0.70715,-0.27499 1.052856,-0.43214 l 8.63107,4.31357 5.55501,-5.555 -4.32144,-8.638929 c 0.16501,-0.341782 0.31429,-0.691425 0.45571,-1.045002 l 9.14571,-3.052499 v -7.85714 l -9.16142,-3.0525 a 19.603574,19.603574 0 0 0 -0.43214,-1.052858 L 114.22001,67.335 108.665,61.779999 100.02607,66.101428 A 19.611431,19.611431 0 0 0 98.981074,65.645714 L 95.928564,56.5 Z m 3.928562,15.714286 a 11.785716,11.785716 0 1 1 0,23.571426 11.785716,11.785716 0 0 1 0,-23.571426 z"
     style="display:inline;fill:url(#linearGradient872);fill-opacity:1;stroke:#ad7702;stroke-width:1;stroke-opacity:1;enable-background:new"
     inkscape:connector-curvature="0" />
</svg>
